<mxfile host="app.diagrams.net" modified="2023-10-30T02:18:58.796Z" agent="Mozilla/5.0 (Macintosh; Intel Mac OS X 10_15_7) AppleWebKit/605.1.15 (KHTML, like Gecko) Version/17.0 Safari/605.1.15" version="22.0.8" etag="DHbQfEE4fExuZV2CphSd" type="github">
  <diagram name="Page-1" id="DVtpfkNWE3P7lbzoHeYz">
    <mxGraphModel>
      <root>
        <mxCell id="0" />
        <mxCell id="1" parent="0" />
      </root>
    </mxGraphModel>
  </diagram>
</mxfile>
